HIERARCHY
ROOT hip
{
  OFFSET 123.659 96.3635 -22.2652
  CHANNELS 6 Xposition Yposition Zposition Zrotation Xrotation Yrotation
  JOINT abdomen
  {
    OFFSET 0 -1.186 -1.50178
    CHANNELS 6 Xposition Yposition Zposition Zrotation Xrotation Yrotation
    JOINT abdomen2
    {
      OFFSET 0 9.964 0.21338
      CHANNELS 6 Xposition Yposition Zposition Zrotation Xrotation Yrotation
      JOINT chest
      {
        OFFSET 0 13.134 -3.25729
        CHANNELS 6 Xposition Yposition Zposition Zrotation Xrotation Yrotation
        JOINT neck
        {
          OFFSET 0 21.686 -1.69049
          CHANNELS 6 Xposition Yposition Zposition Zrotation Xrotation Yrotation
          JOINT head
          {
            OFFSET 0 11.838 -0.12368
            CHANNELS 6 Xposition Yposition Zposition Zrotation Xrotation Yrotation
            End Site
            {
              OFFSET 0 6.717 2.38717
            }
          }
        }
        JOINT lCollar
        {
          OFFSET 1.70688 20.075 5.0056
          CHANNELS 6 Xposition Yposition Zposition Zrotation Xrotation Yrotation
          JOINT lShldr
          {
            OFFSET 13.6458 -0.047012 -4.84902
            CHANNELS 6 Xposition Yposition Zposition Zrotation Xrotation Yrotation
            JOINT lForeArm
            {
              OFFSET 28.3255 -0.975903 2.28883
              CHANNELS 6 Xposition Yposition Zposition Zrotation Xrotation Yrotation
              JOINT lHand
              {
                OFFSET 22.1583 -0.530035 10.8316
                CHANNELS 6 Xposition Yposition Zposition Zrotation Xrotation Yrotation
                JOINT lThumb1
                {
                  OFFSET 0.785995 0.111999 2.58168
                  CHANNELS 6 Xposition Yposition Zposition Zrotation Xrotation Yrotation
                  JOINT lThumb2
                  {
                    OFFSET 0.3601 -0.878005 4.2331
                    CHANNELS 6 Xposition Yposition Zposition Zrotation Xrotation Yrotation
                    End Site
                    {
                      OFFSET 1.81271 -1.21601 2.2227
                    }
                  }
                }
                JOINT lCarpal1
                {
                  OFFSET 0.9571 1.114 1.76948
                  CHANNELS 6 Xposition Yposition Zposition Zrotation Xrotation Yrotation
                  JOINT lIndex1
                  {
                    OFFSET 4.1246 0.487 4.1451
                    CHANNELS 6 Xposition Yposition Zposition Zrotation Xrotation Yrotation
                    JOINT lIndex2
                    {
                      OFFSET 3.40521 -1.45401 2.7682
                      CHANNELS 6 Xposition Yposition Zposition Zrotation Xrotation Yrotation
                      End Site
                      {
                        OFFSET 1.4531 -1.795 1.2713
                      }
                    }
                  }
                  JOINT lMid1
                  {
                    OFFSET 5.6954 0.209991 2.1184
                    CHANNELS 6 Xposition Yposition Zposition Zrotation Xrotation Yrotation
                    JOINT lMid2
                    {
                      OFFSET 3.9766 -1.53999 2.3863
                      CHANNELS 6 Xposition Yposition Zposition Zrotation Xrotation Yrotation
                      End Site
                      {
                        OFFSET 1.4042 -1.926 1.125
                      }
                    }
                  }
                }
                JOINT lCarpal2
                {
                  OFFSET 2.09559 0.65999 -0.38939
                  CHANNELS 6 Xposition Yposition Zposition Zrotation Xrotation Yrotation
                  JOINT lRing1
                  {
                    OFFSET 5.0395 -0.089997 2.49707
                    CHANNELS 6 Xposition Yposition Zposition Zrotation Xrotation Yrotation
                    JOINT lRing2
                    {
                      OFFSET 3.7921 -1.552 1.4806
                      CHANNELS 6 Xposition Yposition Zposition Zrotation Xrotation Yrotation
                      End Site
                      {
                        OFFSET 1.4655 -1.808 0.9609
                      }
                    }
                  }
                  JOINT lPinky1
                  {
                    OFFSET 4.9141 -1.269 0.35915
                    CHANNELS 6 Xposition Yposition Zposition Zrotation Xrotation Yrotation
                    JOINT lPinky2
                    {
                      OFFSET 3.1477 -1.685 0.84623
                      CHANNELS 6 Xposition Yposition Zposition Zrotation Xrotation Yrotation
                      End Site
                      {
                        OFFSET 0.805505 -1.58499 0.79549
                      }
                    }
                  }
                }
              }
            }
          }
        }
        JOINT rCollar
        {
          OFFSET -1.70688 20.075 5.0056
          CHANNELS 6 Xposition Yposition Zposition Zrotation Xrotation Yrotation
          JOINT rShldr
          {
            OFFSET -13.6458 -0.047012 -4.84902
            CHANNELS 6 Xposition Yposition Zposition Zrotation Xrotation Yrotation
            JOINT rForeArm
            {
              OFFSET -28.3255 -0.975903 2.28883
              CHANNELS 6 Xposition Yposition Zposition Zrotation Xrotation Yrotation
              JOINT rHand
              {
                OFFSET -22.1583 -0.530036 10.8316
                CHANNELS 6 Xposition Yposition Zposition Zrotation Xrotation Yrotation
                JOINT rThumb1
                {
                  OFFSET -0.785995 0.111999 2.58168
                  CHANNELS 6 Xposition Yposition Zposition Zrotation Xrotation Yrotation
                  JOINT rThumb2
                  {
                    OFFSET -0.3601 -0.878005 4.2331
                    CHANNELS 6 Xposition Yposition Zposition Zrotation Xrotation Yrotation
                    End Site
                    {
                      OFFSET -1.81271 -1.21601 2.2227
                    }
                  }
                }
                JOINT rCarpal1
                {
                  OFFSET -0.9571 1.114 1.76948
                  CHANNELS 6 Xposition Yposition Zposition Zrotation Xrotation Yrotation
                  JOINT rIndex1
                  {
                    OFFSET -4.1246 0.487 4.1451
                    CHANNELS 6 Xposition Yposition Zposition Zrotation Xrotation Yrotation
                    JOINT rIndex2
                    {
                      OFFSET -3.40521 -1.45401 2.7682
                      CHANNELS 6 Xposition Yposition Zposition Zrotation Xrotation Yrotation
                      End Site
                      {
                        OFFSET -1.4531 -1.795 1.2713
                      }
                    }
                  }
                  JOINT rMid1
                  {
                    OFFSET -5.6954 0.209991 2.1184
                    CHANNELS 6 Xposition Yposition Zposition Zrotation Xrotation Yrotation
                    JOINT rMid2
                    {
                      OFFSET -3.9766 -1.53999 2.3863
                      CHANNELS 6 Xposition Yposition Zposition Zrotation Xrotation Yrotation
                      End Site
                      {
                        OFFSET -1.4042 -1.926 1.125
                      }
                    }
                  }
                }
                JOINT rCarpal2
                {
                  OFFSET -2.09559 0.65999 -0.38939
                  CHANNELS 6 Xposition Yposition Zposition Zrotation Xrotation Yrotation
                  JOINT rRing1
                  {
                    OFFSET -5.0395 -0.089997 2.49707
                    CHANNELS 6 Xposition Yposition Zposition Zrotation Xrotation Yrotation
                    JOINT rRing2
                    {
                      OFFSET -3.7921 -1.552 1.4806
                      CHANNELS 6 Xposition Yposition Zposition Zrotation Xrotation Yrotation
                      End Site
                      {
                        OFFSET -1.4655 -1.808 0.9609
                      }
                    }
                  }
                  JOINT rPinky1
                  {
                    OFFSET -4.9141 -1.269 0.35915
                    CHANNELS 6 Xposition Yposition Zposition Zrotation Xrotation Yrotation
                    JOINT rPinky2
                    {
                      OFFSET -3.1477 -1.685 0.84623
                      CHANNELS 6 Xposition Yposition Zposition Zrotation Xrotation Yrotation
                      End Site
                      {
                        OFFSET -0.805505 -1.58499 0.79549
                      }
                    }
                  }
                }
              }
            }
          }
        }
      }
    }
  }
  JOINT lThigh
  {
    OFFSET 8.367 -8.2066 0.59823
    CHANNELS 6 Xposition Yposition Zposition Zrotation Xrotation Yrotation
    JOINT lShin
    {
      OFFSET 2.19232 -43.463 -0.493181
      CHANNELS 6 Xposition Yposition Zposition Zrotation Xrotation Yrotation
      JOINT lFoot
      {
        OFFSET 0.733257 -45.8593 -2.64513
        CHANNELS 6 Xposition Yposition Zposition Zrotation Xrotation Yrotation
        End Site
        {
          OFFSET 2.6618 -4.26993 12.3931
        }
      }
    }
  }
  JOINT rThigh
  {
    OFFSET -8.367 -8.2066 0.59823
    CHANNELS 6 Xposition Yposition Zposition Zrotation Xrotation Yrotation
    JOINT rShin
    {
      OFFSET -2.19233 -43.463 -0.493108
      CHANNELS 6 Xposition Yposition Zposition Zrotation Xrotation Yrotation
      JOINT rFoot
      {
        OFFSET -0.733256 -45.8593 -2.64514
        CHANNELS 6 Xposition Yposition Zposition Zrotation Xrotation Yrotation
        End Site
        {
          OFFSET -2.6618 -4.26993 12.3931
        }
      }
    }
  }
}
MOTION
Frames:	5
Frame Time:	0.0333333
10.0318 103.333 -1.05557 -2.46296 6.77108 -71.6681 0 -1.186 -1.50178 0.167248 0.136772 0.542369 1.77636e-015 9.964 0.21338 0.318225 0.279567 1.0877 0 13.134 -3.25729 0.298286 0.285675 1.09181 1.77636e-015 21.686 -1.69049 -23.152 13.7123 -26.1945 0 11.838 -0.12368 37.1739 4.88705 -42.2937 1.70688 20.075 5.0056 5.83832 -1.67171 -9.26254 13.6458 -0.047012 -4.84902 -80.3074 20.132 -6.08731 28.3255 -0.975903 2.28883 1.28276 6.49092 14.2195 22.1583 -0.530035 10.8316 -7.8257 6.38291 2.36205 0.785995 0.111999 2.58168 1.59028e-015 3.18055e-015 3.97569e-016 0.3601 -0.878005 4.2331 -7.95139e-016 0 -1.19271e-015 0.9571 1.114 1.76948 1.59028e-015 3.18055e-015 3.97569e-016 4.1246 0.487 4.1451 -7.95139e-016 0 -1.19271e-015 3.40521 -1.45401 2.7682 -7.95139e-016 0 2.38542e-015 5.6954 0.209991 2.1184 -7.95139e-016 0 -1.19271e-015 3.9766 -1.53999 2.3863 -7.95139e-016 0 2.38542e-015 2.09559 0.65999 -0.38939 1.59028e-015 3.18055e-015 3.97569e-016 5.0395 -0.089997 2.49707 -7.95139e-016 0 -1.19271e-015 3.7921 -1.552 1.4806 -7.95139e-016 0 2.38542e-015 4.9141 -1.269 0.35915 -7.95139e-016 0 -1.19271e-015 3.1477 -1.685 0.84623 -7.95139e-016 0 2.38542e-015 -1.70688 20.075 5.0056 5.11718 0.0210639 -4.30904 -13.6458 -0.047012 -4.84902 77.8348 -1.42597 3.72392 -28.3255 -0.975903 2.28883 -1.33148 6.13444 -18.0588 -22.1583 -0.530036 10.8316 -0.60641 -0.576901 2.53504 -0.785995 0.111999 2.58168 -6.36111e-015 0 -2.38542e-015 -0.3601 -0.878005 4.2331 -6.36111e-015 0 -0 -0.9571 1.114 1.76948 -6.36111e-015 0 -2.38542e-015 -4.1246 0.487 4.1451 -6.36111e-015 0 -0 -3.40521 -1.45401 2.7682 0 0 -1.59028e-015 -5.6954 0.209991 2.1184 -6.36111e-015 0 -0 -3.9766 -1.53999 2.3863 0 0 -1.59028e-015 -2.09559 0.65999 -0.38939 -6.36111e-015 0 -2.38542e-015 -5.0395 -0.089997 2.49707 -6.36111e-015 0 -0 -3.7921 -1.552 1.4806 0 0 -1.59028e-015 -4.9141 -1.269 0.35915 -6.36111e-015 0 -0 -3.1477 -1.685 0.84623 0 0 -1.59028e-015 8.367 -8.2066 0.59823 2.52655 -5.01645 17.4639 2.19232 -43.463 -0.493181 1.52629 8.48574 49.0297 0.733257 -45.8593 -2.64513 -3.96286 -6.47989 4.95549 -8.367 -8.2066 0.59823 13.8735 -10.3463 18.7058 -2.19233 -43.463 -0.493108 -0.299972 5.38776 28.8721 -0.733256 -45.8593 -2.64514 6.46857 8.50977 22.5537 
9.93256 103.363 -0.979498 -2.44413 6.46672 -70.0326 1.77636e-015 -1.186 -1.50178 0.135297 0.122008 0.491057 0 9.964 0.21338 0.255976 0.24938 0.984345 0 13.134 -3.25729 0.237928 0.255154 0.987451 -1.77636e-015 21.686 -1.69049 -21.6691 13.6895 -25.0496 1.42109e-014 11.838 -0.12368 36.0012 4.53501 -40.3962 1.70688 20.075 5.0056 5.82528 -1.71068 -9.52826 13.6458 -0.047012 -4.84902 -80.2881 19.8539 -5.91705 28.3255 -0.975903 2.28883 0.959808 6.36048 14.0231 22.1583 -0.530035 10.8316 -7.78297 6.33869 2.42798 0.785995 0.111999 2.58168 1.59028e-015 0 2.18663e-015 0.3601 -0.878005 4.2331 -7.95139e-016 6.36111e-015 -9.93923e-016 0.9571 1.114 1.76948 1.59028e-015 0 2.18663e-015 4.1246 0.487 4.1451 -7.95139e-016 6.36111e-015 -9.93923e-016 3.40521 -1.45401 2.7682 7.95139e-016 3.18055e-015 1.39149e-015 5.6954 0.209991 2.1184 -7.95139e-016 6.36111e-015 -9.93923e-016 3.9766 -1.53999 2.3863 7.95139e-016 3.18055e-015 1.39149e-015 2.09559 0.65999 -0.38939 1.59028e-015 0 2.18663e-015 5.0395 -0.089997 2.49707 -7.95139e-016 6.36111e-015 -9.93923e-016 3.7921 -1.552 1.4806 7.95139e-016 3.18055e-015 1.39149e-015 4.9141 -1.269 0.35915 -7.95139e-016 6.36111e-015 -9.93923e-016 3.1477 -1.685 0.84623 7.95139e-016 3.18055e-015 1.39149e-015 -1.70688 20.075 5.0056 5.04306 0.0305748 -4.29382 -13.6458 -0.047012 -4.84902 77.8913 -1.10151 3.77036 -28.3255 -0.975903 2.28883 -1.41323 5.93083 -18.3698 -22.1583 -0.530036 10.8316 -0.818945 -0.725341 2.66022 -0.785995 0.111999 2.58168 -3.18055e-015 0 7.95139e-016 -0.3601 -0.878005 4.2331 3.18055e-015 6.36111e-015 1.59028e-015 -0.9571 1.114 1.76948 -3.18055e-015 0 7.95139e-016 -4.1246 0.487 4.1451 3.18055e-015 6.36111e-015 1.59028e-015 -3.40521 -1.45401 2.7682 3.18055e-015 -3.18055e-015 -0 -5.6954 0.209991 2.1184 3.18055e-015 6.36111e-015 1.59028e-015 -3.9766 -1.53999 2.3863 3.18055e-015 -3.18055e-015 -0 -2.09559 0.65999 -0.38939 -3.18055e-015 0 7.95139e-016 -5.0395 -0.089997 2.49707 3.18055e-015 6.36111e-015 1.59028e-015 -3.7921 -1.552 1.4806 3.18055e-015 -3.18055e-015 -0 -4.9141 -1.269 0.35915 3.18055e-015 6.36111e-015 1.59028e-015 -3.1477 -1.685 0.84623 3.18055e-015 -3.18055e-015 -0 8.367 -8.2066 0.59823 1.85163 -4.84958 16.9426 2.19232 -43.463 -0.493181 1.90755 7.89316 48.1607 0.733257 -45.8593 -2.64513 -3.7671 -6.19978 4.69907 -8.367 -8.2066 0.59823 13.1881 -10.2651 18.1951 -2.19233 -43.463 -0.493108 -0.184037 5.19949 28.6566 -0.733256 -45.8593 -2.64514 5.91605 8.18773 21.9457 
9.74868 103.419 -1.15173 -2.74758 6.45302 -68.4695 -1.77636e-015 -1.186 -1.50178 0.193427 0.134154 0.505513 0 9.964 0.21338 0.371771 0.273777 1.01485 0 13.134 -3.25729 0.353245 0.278986 1.02003 -8.88179e-016 21.686 -1.69049 -19.7727 13.7344 -23.6599 0 11.838 -0.12368 34.2818 4.21057 -38.0383 1.70688 20.075 5.0056 5.74821 -1.70119 -9.53005 13.6458 -0.047012 -4.84902 -80.2563 19.9352 -6.00588 28.3255 -0.975903 2.28883 1.45058 7.05184 13.8561 22.1583 -0.530035 10.8316 -7.91168 6.49421 2.9067 0.785995 0.111999 2.58168 3.31043e-032 -3.18055e-015 5.96354e-016 0.3601 -0.878005 4.2331 -0 0 1.19271e-015 0.9571 1.114 1.76948 3.31043e-032 -3.18055e-015 5.96354e-016 4.1246 0.487 4.1451 -0 0 1.19271e-015 3.40521 -1.45401 2.7682 -7.95139e-016 -3.18055e-015 -1.39149e-015 5.6954 0.209991 2.1184 -0 0 1.19271e-015 3.9766 -1.53999 2.3863 -7.95139e-016 -3.18055e-015 -1.39149e-015 2.09559 0.65999 -0.38939 3.31043e-032 -3.18055e-015 5.96354e-016 5.0395 -0.089997 2.49707 -0 0 1.19271e-015 3.7921 -1.552 1.4806 -7.95139e-016 -3.18055e-015 -1.39149e-015 4.9141 -1.269 0.35915 -0 0 1.19271e-015 3.1477 -1.685 0.84623 -7.95139e-016 -3.18055e-015 -1.39149e-015 -1.70688 20.075 5.0056 4.80845 0.0470126 -4.16158 -13.6458 -0.047012 -4.84902 78.0798 -1.40795 3.53948 -28.3255 -0.975903 2.28883 -1.69558 6.07457 -18.2356 -22.1583 -0.530036 10.8316 -0.0959584 -0.242287 2.48471 -0.785995 0.111999 2.58168 -3.18055e-015 -3.18055e-015 -1.59028e-015 -0.3601 -0.878005 4.2331 3.18055e-015 0 7.95139e-016 -0.9571 1.114 1.76948 -3.18055e-015 -3.18055e-015 -1.59028e-015 -4.1246 0.487 4.1451 3.18055e-015 0 7.95139e-016 -3.40521 -1.45401 2.7682 9.54166e-015 -3.18055e-015 7.95139e-016 -5.6954 0.209991 2.1184 3.18055e-015 0 7.95139e-016 -3.9766 -1.53999 2.3863 9.54166e-015 -3.18055e-015 7.95139e-016 -2.09559 0.65999 -0.38939 -3.18055e-015 -3.18055e-015 -1.59028e-015 -5.0395 -0.089997 2.49707 3.18055e-015 0 7.95139e-016 -3.7921 -1.552 1.4806 9.54166e-015 -3.18055e-015 7.95139e-016 -4.9141 -1.269 0.35915 3.18055e-015 0 7.95139e-016 -3.1477 -1.685 0.84623 9.54166e-015 -3.18055e-015 7.95139e-016 8.367 -8.2066 0.59823 2.16404 -4.5529 16.7025 2.19232 -43.463 -0.493181 1.70925 7.70412 47.3694 0.733257 -45.8593 -2.64513 -3.79323 -6.03257 4.19998 -8.367 -8.2066 0.59823 13.1551 -9.9175 18.0176 -2.19233 -43.463 -0.493108 -0.128973 4.99664 28.0021 -0.733256 -45.8593 -2.64514 5.53559 8.05094 21.2731 
9.66322 103.452 -1.23285 -2.71422 6.24642 -66.606 0 -1.186 -1.50178 0.198626 0.115178 0.482025 0 9.964 0.21338 0.382879 0.235469 0.968315 0 13.134 -3.25729 0.365019 0.240251 0.974031 2.66454e-015 21.686 -1.69049 -17.4636 13.825 -22.0364 0 11.838 -0.12368 32.2581 3.71123 -35.2314 1.70688 20.075 5.0056 5.55782 -1.66117 -9.42362 13.6458 -0.047012 -4.84902 -80.4482 19.2309 -6.06604 28.3255 -0.975903 2.28883 1.79736 7.50036 13.8511 22.1583 -0.530035 10.8316 -7.7131 6.3964 2.86596 0.785995 0.111999 2.58168 -1.59028e-015 1.59028e-015 -3.97569e-016 0.3601 -0.878005 4.2331 -7.95139e-016 -1.59028e-015 1.98785e-016 0.9571 1.114 1.76948 -1.59028e-015 1.59028e-015 -3.97569e-016 4.1246 0.487 4.1451 -7.95139e-016 -1.59028e-015 1.98785e-016 3.40521 -1.45401 2.7682 -1.59028e-015 1.59028e-015 1.98785e-016 5.6954 0.209991 2.1184 -7.95139e-016 -1.59028e-015 1.98785e-016 3.9766 -1.53999 2.3863 -1.59028e-015 1.59028e-015 1.98785e-016 2.09559 0.65999 -0.38939 -1.59028e-015 1.59028e-015 -3.97569e-016 5.0395 -0.089997 2.49707 -7.95139e-016 -1.59028e-015 1.98785e-016 3.7921 -1.552 1.4806 -1.59028e-015 1.59028e-015 1.98785e-016 4.9141 -1.269 0.35915 -7.95139e-016 -1.59028e-015 1.98785e-016 3.1477 -1.685 0.84623 -1.59028e-015 1.59028e-015 1.98785e-016 -1.70688 20.075 5.0056 4.74461 0.0438457 -4.07545 -13.6458 -0.047012 -4.84902 77.9456 -1.8364 3.47041 -28.3255 -0.975903 2.28883 -1.56846 6.42657 -18.0529 -22.1583 -0.530036 10.8316 -0.448254 -0.439898 2.10532 -0.785995 0.111999 2.58168 0 0 -1.59028e-015 -0.3601 -0.878005 4.2331 0 3.18055e-015 -0 -0.9571 1.114 1.76948 0 0 -1.59028e-015 -4.1246 0.487 4.1451 0 3.18055e-015 -0 -3.40521 -1.45401 2.7682 -6.36111e-015 0 -0 -5.6954 0.209991 2.1184 0 3.18055e-015 -0 -3.9766 -1.53999 2.3863 -6.36111e-015 0 -0 -2.09559 0.65999 -0.38939 0 0 -1.59028e-015 -5.0395 -0.089997 2.49707 0 3.18055e-015 -0 -3.7921 -1.552 1.4806 -6.36111e-015 0 -0 -4.9141 -1.269 0.35915 0 3.18055e-015 -0 -3.1477 -1.685 0.84623 -6.36111e-015 0 -0 8.367 -8.2066 0.59823 2.00238 -4.55229 16.2883 2.19232 -43.463 -0.493181 1.61341 7.39376 46.9647 0.733257 -45.8593 -2.64513 -3.36265 -5.68621 3.19524 -8.367 -8.2066 0.59823 12.628 -9.89795 18.3024 -2.19233 -43.463 -0.493108 0.0790487 4.77048 26.6268 -0.733256 -45.8593 -2.64514 5.39371 7.95748 20.5612 
9.53598 103.485 -1.22955 -2.79279 5.87805 -65.0329 0 -1.186 -1.50178 0.187627 0.127689 0.51236 0 9.964 0.21338 0.359936 0.260957 1.02841 8.88178e-016 13.134 -3.25729 0.341052 0.266337 1.03347 2.66454e-015 21.686 -1.69049 -15.4021 14.0169 -20.3693 0 11.838 -0.12368 30.5607 2.94749 -32.5093 1.70688 20.075 5.0056 5.73109 -1.65963 -9.27711 13.6458 -0.047012 -4.84902 -80.7517 19.3116 -6.08041 28.3255 -0.975903 2.28883 2.15579 7.72081 13.8221 22.1583 -0.530035 10.8316 -7.6428 6.38246 2.86903 0.785995 0.111999 2.58168 -0 0 3.97569e-015 0.3601 -0.878005 4.2331 1.59028e-015 -1.59028e-015 2.78299e-015 0.9571 1.114 1.76948 -0 0 3.97569e-015 4.1246 0.487 4.1451 1.59028e-015 -1.59028e-015 2.78299e-015 3.40521 -1.45401 2.7682 7.95139e-016 -1.59028e-015 1.19271e-015 5.6954 0.209991 2.1184 1.59028e-015 -1.59028e-015 2.78299e-015 3.9766 -1.53999 2.3863 7.95139e-016 -1.59028e-015 1.19271e-015 2.09559 0.65999 -0.38939 -0 0 3.97569e-015 5.0395 -0.089997 2.49707 1.59028e-015 -1.59028e-015 2.78299e-015 3.7921 -1.552 1.4806 7.95139e-016 -1.59028e-015 1.19271e-015 4.9141 -1.269 0.35915 1.59028e-015 -1.59028e-015 2.78299e-015 3.1477 -1.685 0.84623 7.95139e-016 -1.59028e-015 1.19271e-015 -1.70688 20.075 5.0056 4.48197 0.0326814 -3.72264 -13.6458 -0.047012 -4.84902 78.171 -2.02241 3.5904 -28.3255 -0.975903 2.28883 -1.71986 7.13753 -18.0165 -22.1583 -0.530036 10.8316 0.0623589 -0.087455 1.77325 -0.785995 0.111999 2.58168 3.18055e-015 6.36111e-015 -0 -0.3601 -0.878005 4.2331 9.54166e-015 -3.18055e-015 -0 -0.9571 1.114 1.76948 3.18055e-015 6.36111e-015 -0 -4.1246 0.487 4.1451 9.54166e-015 -3.18055e-015 -0 -3.40521 -1.45401 2.7682 6.36111e-015 -3.18055e-015 -1.59028e-015 -5.6954 0.209991 2.1184 9.54166e-015 -3.18055e-015 -0 -3.9766 -1.53999 2.3863 6.36111e-015 -3.18055e-015 -1.59028e-015 -2.09559 0.65999 -0.38939 3.18055e-015 6.36111e-015 -0 -5.0395 -0.089997 2.49707 9.54166e-015 -3.18055e-015 -0 -3.7921 -1.552 1.4806 6.36111e-015 -3.18055e-015 -1.59028e-015 -4.9141 -1.269 0.35915 9.54166e-015 -3.18055e-015 -0 -3.1477 -1.685 0.84623 6.36111e-015 -3.18055e-015 -1.59028e-015 8.367 -8.2066 0.59823 1.58707 -4.14596 16.4878 2.19232 -43.463 -0.493181 1.72178 6.74571 46.0916 0.733257 -45.8593 -2.64513 -3.24037 -5.46116 2.33985 -8.367 -8.2066 0.59823 12.0621 -9.58539 17.7145 -2.19233 -43.463 -0.493108 0.0949043 4.50963 26.4158 -0.733256 -45.8593 -2.64514 5.12337 7.72587 19.7845 
